<svg xmlns="http://www.w3.org/2000/svg" viewBox="0 0 800 450" fill="none">
  <rect width="800" height="450" fill="#ffffff"/>
  <!-- Sponsored post -->
  <rect x="230" y="30" width="340" height="390" rx="16" stroke="#111" stroke-width="2" fill="none"/>
  <circle cx="265" cy="60" r="16" stroke="#111" stroke-width="1.5" fill="#f5f5f5"/>
  <text x="258" y="65" font-family="system-ui" font-size="12">🏪</text>
  <text x="290" y="57" font-family="system-ui" font-size="11" font-weight="600" fill="#111">Votre Boutique</text>
  <text x="290" y="72" font-family="system-ui" font-size="9" fill="#494949">Sponsorisé · 💰 20 000 FCFA</text>
  <!-- Post content -->
  <rect x="245" y="88" width="310" height="80" rx="8" stroke="#111" stroke-width="1" fill="#f5f5f5"/>
  <text x="360" y="132" font-family="system-ui" font-size="26" text-anchor="middle">👗</text>
  <!-- Good comment -->
  <text x="255" y="195" font-family="system-ui" font-size="10" fill="#111">👤 Aïcha: Intéressée ! Prix svp ?</text>
  <!-- Your auto reply -->
  <rect x="275" y="202" width="200" height="24" rx="10" stroke="#111" stroke-width="1" fill="#f5f5f5"/>
  <text x="285" y="218" font-family="system-ui" font-size="9" fill="#111">🤖 12 000 FCFA — DM envoyé ! ✅</text>
  <!-- Bad comment - thief -->
  <text x="255" y="250" font-family="system-ui" font-size="10" fill="#111">🦹 Concurrent: Moi c'est 6000 DM 👆</text>
  <!-- Strike through + shield -->
  <line x1="250" y1="246" x2="520" y2="246" stroke="#111" stroke-width="2.5" stroke-linecap="round"/>
  <rect x="275" y="258" width="180" height="24" rx="10" stroke="#111" stroke-width="1.2" fill="#e8e8e8"/>
  <text x="290" y="274" font-family="system-ui" font-size="9" fill="#111">🛡️ Masqué + signalé en 2 sec</text>
  <!-- Another thief -->
  <text x="255" y="305" font-family="system-ui" font-size="10" fill="#111">🦹 Spam: Meilleur qualité chez moi !</text>
  <line x1="250" y1="301" x2="515" y2="301" stroke="#111" stroke-width="2.5" stroke-linecap="round"/>
  <rect x="275" y="312" width="180" height="24" rx="10" stroke="#111" stroke-width="1.2" fill="#e8e8e8"/>
  <text x="290" y="328" font-family="system-ui" font-size="9" fill="#111">🛡️ Masqué + signalé en 2 sec</text>
  <!-- Real prospect gets response -->
  <text x="255" y="365" font-family="system-ui" font-size="10" fill="#111">👤 Moussa: Livraison à Bamako ?</text>
  <rect x="275" y="372" width="215" height="24" rx="10" stroke="#111" stroke-width="1" fill="#f5f5f5"/>
  <text x="285" y="388" font-family="system-ui" font-size="9" fill="#111">🤖 Oui, livraison 48h ! DM envoyé 📩</text>
  <!-- Protection badge on right -->
  <circle cx="660" cy="160" r="50" stroke="#111" stroke-width="2" fill="none"/>
  <path d="M660 125 L660 120 C660 110, 640 100, 640 100 L660 95 L680 100 C680 100, 660 110, 660 120 Z" stroke="#111" stroke-width="2" fill="#f5f5f5"/>
  <text x="650" y="170" font-family="system-ui" font-size="28">🛡️</text>
  <!-- Stats -->
  <text x="620" y="250" font-family="system-ui" font-size="12" font-weight="600" fill="#111">Vos leads :</text>
  <text x="620" y="275" font-family="system-ui" font-size="11" fill="#494949">✅ Protégés</text>
  <text x="620" y="295" font-family="system-ui" font-size="11" fill="#494949">⚡ Réponse 2s</text>
  <text x="620" y="315" font-family="system-ui" font-size="11" fill="#494949">💰 ROI pub OK</text>
</svg>
